<svg xmlns="http://www.w3.org/2000/svg" xmlns:xlink="http://www.w3.org/1999/xlink" id="レイヤー_1" x="0" y="0" enable-background="new 0 0 45.8 45.2" version="1.1" viewBox="0 0 45.8 45.2" xml:space="preserve"><style type="text/css">.st0{fill:#71c7d2}.st1{fill:#7fc487}.st2{fill:#ede267}.st3{fill:#ef947f}.st4{fill:#a47db6}.st5{fill:#ea6ea5}</style><g><path d="M24.7,6.7l1.7-4.3c0,0-10.3-0.8-17.4,4.3c-9.4,6.9-9.9,14.7-8.2,22.7s9.3,12.5,12,12.8c-2.9-2-8.2-6-9.4-13.2 c-1.5-9,1.5-14.6,7-18.7C14.9,7,19.2,6.7,24.7,6.7z" class="st0"/><path d="M36,8.4C36.8,7.5,39,7,40.2,8c1.2,1,1.2,3.5-0.7,4.5s-3.8,0.7-4.3-0.5S35,9.4,36,8.4z" class="st1"/><path d="M38.8,16.2c1.7-1.7,4.5-2.2,5.8,0.3c1.3,2.5,1.2,5-1,5.7c-2.2,0.7-4.2,0.5-5.3-1 C37.2,19.7,37.7,17.4,38.8,16.2z" class="st2"/><path d="M35.8,27.5c1-2.8,4.5-3,7.2-2.3c2.7,0.7,3.5,4.2,2.3,6.5c-1.2,2.3-3,3-5.8,2.5S34.7,30.8,35.8,27.5z" class="st3"/><path d="M25.8,35.4c1.6-3.6,7.7-3.8,9.5-0.5c1.8,3.3,1.7,7.2-0.2,8.8c-1.8,1.7-5.3,2.2-7.8,0.5S24.2,39.2,25.8,35.4z" class="st4"/><path d="M34.8,2.4c0-3.2-1.8-2.5-3.3-1.7C30,1.5,26.3,8,23.8,14c-2,4.8-4.3,12.3-5.2,15.2c-2.2-0.2-3.6,1.8-4.3,4 c-0.7,2-0.5,7.5-0.3,8.7c0,0.3,0.3,1.1,0.5,1.3l2.5-7.3c-0.5-0.3-0.4-1-0.1-1.5c0.5-1,1.5-1.5,2,0c0.5,1.5-0.2,1.8-1.3,1.7L15,43.4 c0.3,0.1,0.7,0.1,1.2-0.2c2.4-1.4,5.3-6.8,6-8.8c0.5-1.4,0.3-2.8-0.8-3.9c1.7-2.5,6-9,8.1-13.4C32.2,11.4,34.8,5.5,34.8,2.4z" class="st5"/></g></svg>